<svg width="177" height="177" viewBox="0 0 177 177" fill="none" xmlns="http://www.w3.org/2000/svg">
<path d="M110.532 88.1692L171.707 26.9943C177.882 20.8193 177.882 10.8063 171.707 4.63125C165.532 -1.54375 155.519 -1.54375 149.344 4.63125L88.1693 65.8063L26.9943 4.63125C20.8193 -1.54375 10.8063 -1.54375 4.63125 4.63125C-1.54375 10.8063 -1.54375 20.8193 4.63125 26.9943L65.8063 88.1692L4.63125 149.344C-1.54375 155.519 -1.54375 165.532 4.63125 171.707C10.8063 177.882 20.8193 177.882 26.9943 171.707L88.1693 110.532L149.344 171.707C155.519 177.882 165.532 177.882 171.707 171.707C177.882 165.532 177.882 155.519 171.707 149.344L110.532 88.1692Z" fill="#E94141"/>
</svg>
